<?xml version="1.0" standalone="no"?>
<!DOCTYPE svg PUBLIC "-//W3C//DTD SVG 20010904//EN"
 "http://www.w3.org/TR/2001/REC-SVG-20010904/DTD/svg10.dtd">
<svg version="1.0" xmlns="http://www.w3.org/2000/svg"
 width="744.000000pt" height="557.000000pt" viewBox="0 0 744.000000 557.000000"
 preserveAspectRatio="xMidYMid meet">

<g transform="translate(0.000000,557.000000) scale(0.100000,-0.100000)"
fill="#2F5233" stroke="none">
<path d="M3803 5459 c-110 -34 -183 -108 -220 -219 -25 -76 -25 -263 0 -336
38 -111 118 -190 227 -225 59 -19 334 -19 368 -1 40 23 21 38 -39 32 -30 -3
-106 -4 -170 -4 -103 1 -121 4 -173 29 -73 34 -121 83 -155 154 -24 52 -26 66
-26 186 1 111 4 137 22 176 32 71 81 119 153 153 62 28 72 30 195 30 86 0 145
-4 173 -13 33 -11 45 -12 54 -3 52 52 -271 85 -409 41z"/>
<path d="M4557 5164 c-19 -20 -1 -32 66 -43 137 -25 211 -55 252 -103 25 -29
27 -38 22 -91 -3 -34 -12 -66 -21 -75 -13 -14 -19 -13 -58 1 -88 33 -222 67
-262 67 -107 -2 -182 -97 -162 -206 4 -19 23 -52 42 -73 47 -53 165 -91 277
-91 70 0 79 -2 84 -20 3 -11 13 -20 22 -20 12 0 28 44 71 198 63 227 67 273
26 326 -46 61 -144 107 -256 120 -30 4 -64 9 -75 12 -11 3 -24 2 -28 -2z m115
-308 c72 -19 170 -54 181 -65 12 -12 -32 -173 -52 -189 -12 -10 -39 -12 -106
-9 -165 10 -255 65 -255 157 0 42 24 86 58 104 34 19 106 20 174 2z"/>
<path d="M2964 5152 c-10 -6 -21 -131 -40 -455 -8 -123 -20 -141 -62 -91 -197
236 -340 394 -358 394 -21 0 -27 -19 -12 -39 13 -19 100 -117 233 -266 181
-201 177 -195 173 -245 -5 -52 -28 -104 -61 -140 -24 -26 -25 -50 -3 -50 21 0
64 52 86 105 21 50 24 72 60 520 20 252 18 290 -16 267z"/>
<path d="M5326 4914 c-8 -11 -80 -120 -159 -244 -103 -161 -141 -229 -134
-237 5 -7 14 -13 18 -13 5 0 44 53 86 118 140 217 167 257 178 264 18 13 103
9 152 -8 91 -30 138 -81 134 -143 -2 -43 -11 -59 -137 -258 -73 -113 -103
-168 -96 -175 6 -6 17 -8 24 -6 7 3 63 83 123 177 61 95 119 181 129 193 44
47 215 0 264 -73 43 -63 31 -99 -100 -304 -92 -144 -114 -184 -106 -198 7 -14
12 -16 23 -7 19 16 225 337 242 377 31 76 7 148 -68 203 -50 36 -92 50 -179
58 l-64 7 -8 40 c-18 84 -147 164 -265 165 -35 0 -43 4 -43 18 0 10 5 23 12
30 9 9 9 15 1 23 -8 8 -15 6 -27 -7z"/>
<path d="M2058 4766 c-105 -53 -228 -146 -228 -172 0 -7 41 -79 91 -161 51
-81 127 -204 169 -273 43 -69 90 -146 105 -172 32 -58 42 -65 61 -46 13 13 8
26 -41 103 -60 97 -66 120 -32 130 113 32 221 108 260 185 25 47 28 64 24 115
-5 72 -49 173 -98 230 -91 103 -189 123 -311 61z m197 -31 c105 -50 183 -203
161 -318 -10 -55 -77 -122 -161 -162 -41 -19 -89 -36 -107 -37 -30 -3 -36 2
-76 62 -104 159 -183 300 -178 317 8 24 147 118 211 143 66 25 86 25 150 -5z"/>
<path d="M1445 4296 c-67 -29 -136 -134 -150 -228 -7 -46 -7 -46 -53 -53 -26
-4 -61 -15 -78 -26 -50 -31 -101 -115 -124 -206 -8 -32 -16 -43 -30 -43 -10 0
-22 5 -25 10 -9 15 -35 12 -35 -4 0 -7 75 -78 167 -157 91 -79 182 -159 202
-177 20 -18 43 -37 52 -42 19 -11 44 3 36 23 -3 8 -80 78 -171 157 l-166 143
0 43 c0 82 61 184 134 221 25 13 35 13 68 2 41 -13 60 -28 240 -186 115 -102
158 -125 158 -84 0 11 -4 21 -9 23 -5 2 -82 66 -170 143 -156 136 -161 141
-161 179 0 65 22 118 70 168 44 46 49 48 100 48 51 0 85 -16 136 -65 70 -67
259 -220 272 -220 45 0 13 38 -139 169 -89 77 -178 148 -197 158 -42 21 -85
23 -127 4z"/>
<path d="M6230 4143 c-36 -30 -87 -74 -115 -98 -27 -23 -129 -109 -225 -189
-97 -81 -176 -156 -178 -167 -6 -37 33 -20 109 46 41 35 81 65 89 64 8 0 35
-34 60 -75 78 -131 176 -200 272 -191 108 10 268 133 301 231 28 83 20 130
-38 221 -31 49 -163 188 -195 205 -11 6 -34 -8 -80 -47z m162 -85 c143 -148
156 -260 42 -370 -50 -49 -100 -79 -161 -96 -102 -30 -222 53 -296 206 l-21
42 27 27 c68 68 304 261 320 262 10 1 50 -32 89 -71z"/>
<path d="M3123 4025 c-25 -17 -83 -108 -145 -227 -31 -59 -44 -55 -67 19 -25
78 -44 103 -81 103 -43 0 -65 -41 -52 -94 42 -168 68 -445 44 -460 -20 -12
-35 12 -134 203 -19 38 -42 67 -55 72 -30 11 -69 -4 -78 -30 -7 -24 3 -89 16
-97 5 -3 9 -14 9 -25 0 -10 4 -27 9 -37 5 -9 31 -73 56 -142 26 -69 54 -141
62 -160 8 -19 19 -44 23 -55 4 -11 15 -36 24 -57 9 -20 16 -39 16 -42 0 -3 15
-39 34 -80 32 -69 61 -108 274 -369 107 -132 224 -269 326 -381 100 -111 106
-118 106 -128 0 -15 24 -9 85 22 88 43 147 38 229 -21 33 -24 37 -29 21 -35
-10 -4 -31 -2 -46 3 -16 6 -29 9 -29 6 0 -3 19 -26 41 -51 46 -52 66 -88 55
-99 -4 -4 -16 -2 -26 5 -46 28 -51 12 -11 -34 58 -66 53 -93 -11 -60 -15 8
-29 12 -32 9 -5 -6 123 -133 134 -133 12 0 144 129 138 135 -3 4 -20 -1 -37
-9 -64 -34 -69 -9 -10 58 41 46 36 61 -13 35 -50 -27 -27 31 40 99 44 45 49
62 14 43 -25 -14 -62 -14 -62 -2 0 15 60 55 101 69 54 18 88 14 154 -18 33
-16 65 -29 70 -29 6 0 27 21 47 47 34 43 111 131 207 237 110 122 432 521 448
555 28 63 55 124 69 163 9 23 22 56 29 72 7 17 38 98 70 180 31 83 61 159 65
170 49 118 51 162 8 183 -43 20 -69 2 -111 -79 -21 -41 -52 -100 -69 -132 -34
-64 -46 -76 -60 -56 -14 22 7 297 32 399 23 97 23 104 0 128 -11 12 -31 22
-44 22 -39 0 -54 -25 -92 -158 -4 -16 -44 2 -44 20 0 18 -112 201 -141 231
-32 31 -69 35 -92 9 -27 -30 -21 -52 44 -157 65 -104 128 -232 155 -312 12
-35 14 -68 10 -132 -3 -47 -9 -158 -12 -246 -5 -120 -10 -164 -21 -177 -13
-15 -12 -18 8 -28 19 -11 25 -10 36 6 7 10 13 29 13 42 0 13 4 32 10 42 5 10
11 41 12 69 1 28 6 51 10 51 13 0 9 138 -7 230 -24 144 -40 200 -77 278 -12
23 -18 45 -14 49 8 9 45 -36 46 -54 0 -7 4 -13 8 -13 18 0 88 -174 120 -295 6
-22 15 -59 22 -82 6 -24 14 -43 18 -43 4 0 26 39 50 88 83 168 97 190 100 164
4 -24 -19 -90 -64 -190 -13 -29 -24 -57 -24 -62 0 -6 -4 -18 -9 -28 -5 -9 -24
-48 -41 -87 -27 -58 -34 -67 -41 -50 -4 11 -8 36 -9 55 -2 33 -3 33 -10 -11
-12 -69 -59 -216 -74 -228 -43 -36 -225 91 -278 194 -37 71 -66 275 -39 275 9
0 41 -77 41 -100 0 -55 85 -209 138 -251 34 -26 49 -24 19 4 -24 21 -41 47
-89 132 -36 64 -52 122 -68 244 -10 77 -25 100 -66 101 -36 0 -54 -31 -54 -94
0 -54 22 -175 40 -221 40 -102 91 -180 179 -275 28 -30 51 -56 51 -58 0 -4
-58 -79 -120 -156 -14 -17 -39 -49 -55 -71 -16 -22 -42 -53 -57 -70 -16 -16
-31 -38 -34 -47 -12 -38 -34 -11 -34 40 0 63 -51 169 -112 237 -36 39 -50 48
-78 48 -35 0 -60 -23 -60 -56 0 -11 18 -40 40 -64 71 -76 84 -118 84 -275 0
-75 4 -134 8 -132 5 3 8 27 8 54 0 27 5 52 10 55 6 3 10 39 10 80 0 75 14 107
26 59 7 -28 -1 -180 -12 -229 l-7 -30 29 30 c16 17 47 52 69 80 37 45 91 108
123 141 6 7 12 15 12 19 0 4 7 13 15 22 25 24 30 7 6 -18 -23 -25 -27 -55 -8
-62 8 -4 9 -8 1 -14 -5 -4 -23 -26 -39 -48 -17 -22 -80 -103 -141 -180 -61
-77 -119 -152 -128 -167 -20 -31 -40 -35 -62 -14 -20 20 -19 23 25 80 42 56
54 83 42 90 -4 3 -29 -24 -55 -59 -26 -36 -53 -65 -61 -65 -7 0 -38 11 -69 25
-74 33 -107 32 -172 -5 l-52 -31 -56 31 c-73 39 -122 37 -203 -8 -25 -14 -63
-16 -63 -4 0 4 -20 37 -45 72 -42 60 -45 62 -45 34 0 -20 14 -46 45 -84 44
-54 45 -55 26 -74 -32 -32 -25 -39 -256 259 -102 132 -105 138 -82 149 10 5
10 7 0 12 -7 3 -13 14 -13 25 0 15 9 9 38 -23 20 -24 39 -45 42 -48 3 -3 23
-27 45 -55 22 -27 53 -63 69 -80 l29 -30 -6 30 c-21 94 -19 262 3 239 5 -5 11
-38 13 -74 6 -75 23 -189 29 -196 3 -2 4 60 4 139 1 163 12 203 84 280 47 52
52 88 16 112 -33 22 -69 11 -110 -35 -66 -73 -103 -152 -115 -244 -7 -56 -20
-67 -41 -32 -8 13 -27 39 -42 57 -125 158 -208 270 -208 282 0 7 23 38 51 68
58 62 139 171 139 188 0 6 4 19 9 29 55 108 81 319 44 348 -23 17 -61 18 -77
2 -7 -7 -20 -62 -30 -121 -16 -102 -22 -126 -50 -187 -15 -34 -59 -104 -68
-108 -5 -2 -8 -10 -8 -18 0 -8 -3 -14 -8 -14 -4 0 -13 -9 -20 -21 -12 -18 -11
-19 7 -10 30 16 78 79 108 141 14 30 30 63 35 72 4 10 8 26 8 35 0 26 32 113
42 113 13 0 9 -120 -6 -180 -22 -88 -33 -108 -94 -172 -82 -86 -187 -143 -218
-117 -13 11 -33 70 -63 189 -15 59 -19 68 -20 40 -2 -66 -17 -68 -46 -4 -113
248 -164 395 -137 394 4 -1 36 -61 72 -135 36 -74 70 -133 75 -131 6 1 14 20
18 42 5 21 13 57 19 79 22 89 103 286 120 293 4 2 8 9 8 15 1 15 39 62 45 55
2 -2 -10 -40 -27 -84 -46 -118 -65 -210 -74 -367 -4 -67 -3 -102 5 -110 6 -6
11 -28 11 -49 0 -51 31 -159 47 -165 7 -3 20 0 28 7 13 11 13 14 1 24 -11 8
-16 51 -20 181 -3 94 -9 206 -12 251 -6 84 3 127 46 217 11 22 20 44 20 49 0
8 110 195 141 240 48 67 -12 139 -78 93z m-46 -227 c-3 -8 -6 -5 -6 6 -1 11 2
17 5 13 3 -3 4 -12 1 -19z m1690 0 c-3 -8 -6 -5 -6 6 -1 11 2 17 5 13 3 -3 4
-12 1 -19z m-1889 -35 c41 -65 46 -89 32 -134 -22 -65 -35 -52 -56 54 -7 40
-16 84 -20 100 -10 42 10 33 44 -20z m2132 30 c0 -9 -4 -30 -10 -47 -5 -17
-15 -59 -22 -93 -7 -35 -17 -63 -23 -63 -7 0 -18 18 -25 39 -14 45 -7 75 38
144 26 40 42 47 42 20z m-1950 -23 c0 -5 -4 -10 -10 -10 -5 0 -10 5 -10 10 0
6 5 10 10 10 6 0 10 -4 10 -10z m1740 0 c0 -5 -4 -10 -10 -10 -5 0 -10 5 -10
10 0 6 5 10 10 10 6 0 10 -4 10 -10z m-2143 -232 c-3 -8 -6 -5 -6 6 -1 11 2
17 5 13 3 -3 4 -12 1 -19z m2530 -10 c-3 -8 -6 -5 -6 6 -1 11 2 17 5 13 3 -3
4 -12 1 -19z m-2219 -246 c4 -60 -12 -70 -22 -14 -9 56 -7 74 7 70 7 -3 13
-26 15 -56z m1932 4 c0 -54 -14 -82 -26 -52 -8 22 5 106 17 106 5 0 9 -24 9
-54z m-30 -126 c0 -22 -4 -40 -10 -40 -11 0 -14 63 -3 73 11 12 13 8 13 -33z
m-1880 -16 c0 -21 -4 -33 -10 -29 -5 3 -10 19 -10 36 0 16 5 29 10 29 6 0 10
-16 10 -36z m482 -546 c-10 -22 -11 -21 -11 12 -1 26 2 31 11 22 8 -8 8 -17 0
-34z m908 15 c0 -21 -3 -24 -9 -14 -5 8 -7 20 -4 28 8 21 13 15 13 -14z
m-1180 -23 c0 -5 -4 -10 -10 -10 -5 0 -10 5 -10 10 0 6 5 10 10 10 6 0 10 -4
10 -10z m20 -26 c0 -8 -5 -12 -10 -9 -6 4 -8 11 -5 16 9 14 15 11 15 -7z"/>
<path d="M6620 3486 c-106 -34 -193 -99 -229 -171 -20 -41 -23 -58 -19 -124 5
-80 31 -146 101 -253 26 -39 34 -45 49 -37 17 9 17 12 -6 42 -41 55 -87 154
-98 214 -15 83 1 136 59 191 70 68 73 66 183 -150 52 -102 98 -189 101 -192
18 -19 149 66 179 117 60 98 -22 298 -145 356 -49 23 -118 26 -175 7z m163
-51 c37 -17 61 -38 85 -73 53 -79 64 -139 36 -198 -17 -36 -90 -94 -118 -94
-10 0 -45 57 -96 158 -105 206 -103 197 -43 215 67 21 78 20 136 -8z"/>
<path d="M795 3354 c-47 -24 -71 -51 -108 -123 -58 -109 -85 -231 -53 -231 8
0 17 16 21 38 15 83 66 191 110 237 39 40 49 45 88 45 46 0 111 -21 122 -40 4
-6 -12 -47 -35 -91 -78 -150 -99 -254 -65 -320 24 -46 85 -79 147 -79 57 0 92
17 128 62 35 45 73 139 90 223 14 68 20 80 38 83 21 3 33 42 13 42 -5 0 -58
23 -117 50 -60 28 -118 55 -129 59 -11 5 -46 21 -78 35 -66 30 -128 33 -172
10z m283 -114 c9 -5 43 -21 76 -36 l59 -27 -6 -61 c-9 -112 -68 -240 -123
-265 -59 -26 -147 -1 -175 50 -19 37 -5 126 36 213 60 130 84 153 133 126z"/>
<path d="M7025 2829 c-33 -10 -78 -24 -100 -31 -22 -6 -71 -21 -110 -33 -38
-12 -90 -28 -115 -35 -42 -12 -132 -41 -138 -45 -1 -1 0 -10 4 -19 7 -18 41
-21 76 -7 22 9 148 48 233 73 22 6 59 17 83 24 70 22 97 18 142 -22 22 -20 40
-42 40 -50 0 -19 21 -29 30 -13 12 19 -14 63 -55 95 -41 31 -42 36 -13 49 12
6 23 16 26 23 5 17 -32 14 -103 -9z"/>
<path d="M282 2711 c-7 -4 -24 -39 -37 -77 -54 -155 -58 -327 -10 -429 28 -58
92 -122 152 -150 111 -53 286 -69 385 -37 160 53 257 228 258 464 0 85 -5 108
-26 108 -11 0 -13 -11 -8 -52 8 -68 -19 -227 -50 -294 -72 -158 -220 -222
-417 -180 -198 41 -289 146 -289 335 0 71 21 178 50 251 21 52 17 77 -8 61z"/>
<path d="M4595 2500 c-3 -5 1 -10 9 -10 9 0 16 5 16 10 0 6 -4 10 -9 10 -6 0
-13 -4 -16 -10z"/>
<path d="M6984 2428 c-45 -42 -57 -94 -44 -185 22 -151 11 -201 -51 -228 -35
-16 -43 -16 -76 -4 -74 28 -105 115 -102 279 1 80 -1 95 -14 98 -24 5 -31 -37
-24 -152 12 -219 104 -324 236 -270 38 16 50 28 70 68 24 48 24 52 13 145 -18
141 -16 165 14 200 49 58 141 49 183 -19 29 -48 44 -139 39 -239 -3 -69 -1
-91 9 -91 22 0 33 37 33 112 0 81 -21 191 -43 235 -8 16 -27 41 -42 56 -25 24
-35 27 -97 27 -63 0 -71 -2 -104 -32z"/>
<path d="M2823 2210 c-43 -18 -55 -76 -27 -135 8 -18 41 -59 73 -91 32 -33 76
-87 99 -121 23 -34 57 -73 75 -86 37 -29 185 -63 201 -47 7 7 1 10 -17 10 -15
0 -35 4 -45 9 -9 5 -35 14 -57 20 -54 15 -72 33 -133 126 -28 44 -65 93 -82
109 -44 41 -77 87 -85 118 -5 21 -2 30 17 42 26 17 63 12 158 -24 40 -14 79
-20 145 -20 107 0 170 -23 181 -64 3 -14 15 -28 25 -31 14 -5 18 -12 14 -26
-5 -15 -2 -19 14 -19 12 0 30 -5 40 -12 15 -9 23 -9 35 1 9 8 16 17 16 22 0 4
-26 27 -57 49 -32 22 -76 54 -99 71 -37 27 -52 31 -148 40 -59 5 -115 13 -124
18 -34 18 -146 51 -171 50 -14 0 -36 -4 -48 -9z"/>
<path d="M4880 2199 c-36 -12 -74 -25 -85 -30 -11 -5 -63 -13 -117 -18 -108
-10 -118 -14 -205 -82 -35 -27 -67 -49 -72 -49 -5 0 -14 -7 -21 -15 -10 -12
-9 -18 5 -31 14 -14 21 -15 36 -6 10 7 28 12 39 12 13 0 20 7 20 19 0 11 9 23
21 26 11 4 18 12 16 19 -3 6 1 19 8 29 23 31 80 47 172 47 64 0 103 6 143 20
94 35 132 41 158 24 12 -8 22 -23 22 -33 0 -21 -40 -77 -105 -145 -25 -27 -55
-68 -66 -91 -29 -62 -81 -112 -131 -126 -24 -7 -47 -16 -53 -21 -5 -4 -25 -8
-44 -8 -23 0 -32 -3 -25 -10 16 -16 164 18 201 47 18 13 52 52 75 85 23 34 63
82 88 107 102 99 127 175 75 226 -30 31 -67 32 -155 4z"/>
<path d="M3098 2033 c6 -2 18 -2 25 0 6 3 1 5 -13 5 -14 0 -19 -2 -12 -5z"/>
<path d="M4718 2033 c6 -2 18 -2 25 0 6 3 1 5 -13 5 -14 0 -19 -2 -12 -5z"/>
<path d="M3174 1977 c48 -46 64 -78 26 -55 -10 7 -22 9 -26 5 -8 -8 50 -67 66
-67 6 0 28 -12 50 -26 22 -15 43 -24 47 -21 12 13 -81 138 -127 172 -70 51
-93 46 -36 -8z"/>
<path d="M4625 1981 c-47 -37 -130 -152 -118 -164 8 -9 114 52 148 85 28 27
29 28 7 28 -12 0 -22 -4 -22 -10 0 -5 -4 -10 -10 -10 -20 0 -9 19 36 64 58 59
31 63 -41 7z"/>
<path d="M4356 1807 c1 -43 7 -72 22 -96 19 -31 20 -32 27 -12 12 39 -16 148
-42 164 -5 3 -8 -23 -7 -56z"/>
<path d="M3457 1826 c-10 -22 -17 -63 -17 -95 l0 -56 21 35 c12 19 26 37 31
38 5 3 5 9 -1 16 -5 6 -11 32 -13 56 l-3 45 -18 -39z"/>
<path d="M3256 1738 c3 -12 21 -36 40 -53 18 -17 36 -43 39 -57 9 -35 0 -161
-16 -228 -18 -73 -18 -356 -1 -435 32 -146 27 -164 -25 -82 -14 23 -29 44 -33
47 -4 3 -12 14 -19 25 -11 18 -12 17 -7 -10 10 -61 25 -124 45 -181 21 -64 14
-89 -17 -61 -10 9 -24 17 -30 17 -14 0 -5 -32 36 -120 19 -41 21 -42 21 -17 1
36 16 34 63 -9 47 -42 58 -38 30 9 -27 46 -64 153 -60 174 2 11 18 -4 48 -46
25 -35 53 -72 62 -84 17 -22 17 -22 18 11 0 18 -4 40 -9 50 -10 18 -42 123
-64 209 -11 42 -11 57 -1 82 10 24 10 40 -1 88 -19 79 -19 283 0 375 26 121 6
199 -73 281 -41 42 -57 47 -46 15z"/>
<path d="M4526 1709 c-25 -28 -46 -59 -46 -69 0 -11 -4 -21 -9 -24 -18 -11
-21 -99 -5 -173 15 -76 15 -289 -1 -403 -4 -25 -2 -56 3 -69 9 -24 -25 -185
-48 -223 -5 -10 -10 -26 -10 -36 0 -10 -5 -23 -11 -29 -6 -6 -9 -26 -7 -44 l3
-34 60 84 c49 68 61 80 63 62 4 -23 -54 -177 -69 -187 -5 -3 -9 -10 -9 -15 0
-13 27 3 62 35 35 33 46 33 50 -2 4 -24 5 -25 12 -7 5 11 15 35 23 54 37 84
34 113 -9 74 -27 -24 -41 0 -23 41 7 17 18 50 24 74 6 23 16 59 22 80 21 74 6
75 -41 2 -65 -101 -70 -95 -40 55 19 93 28 240 19 320 -10 98 -23 167 -33 183
-4 7 -7 45 -7 85 -1 79 16 124 55 154 25 19 44 63 28 63 -6 0 -31 -23 -56 -51z"/>
<path d="M3449 1611 c-22 -18 -22 -20 -6 -26 12 -5 17 -18 17 -45 0 -23 7 -43
18 -53 24 -22 81 -22 89 -1 4 11 13 13 36 8 28 -6 29 -5 23 21 -10 40 -45 82
-82 100 -43 20 -67 19 -95 -4z m75 -30 c9 -14 -4 -41 -19 -41 -18 0 -28 17
-21 35 6 17 32 20 40 6z"/>
<path d="M4292 1613 c-31 -15 -82 -85 -82 -112 0 -9 9 -11 29 -6 21 4 30 2 34
-9 9 -23 76 -21 93 2 7 9 14 32 14 51 0 19 7 39 16 46 15 10 15 13 -1 28 -21
21 -60 21 -103 0z m66 -46 c4 -21 -27 -35 -38 -17 -12 19 0 42 19 38 9 -2 17
-11 19 -21z"/>
<path d="M3740 1484 c0 -11 -4 -24 -9 -29 -11 -13 -22 -71 -14 -79 3 -3 17 15
30 40 22 41 23 46 8 66 -14 22 -15 22 -15 2z"/>
<path d="M4083 1481 c-11 -17 -9 -28 11 -66 14 -25 27 -41 31 -36 6 11 -3 60
-15 76 -4 6 -9 18 -11 28 -4 16 -5 16 -16 -2z"/>
<path d="M3423 1280 c0 -25 2 -35 4 -22 2 12 2 32 0 45 -2 12 -4 2 -4 -23z"/>
<path d="M4411 1254 c0 -11 3 -14 6 -6 3 7 2 16 -1 19 -3 4 -6 -2 -5 -13z"/>
<path d="M3441 1182 c0 -23 4 -51 9 -62 6 -11 15 -29 20 -40 13 -26 13 -30 -5
-30 -8 0 -15 5 -15 12 0 6 -3 8 -7 5 -12 -12 40 -112 59 -113 7 0 27 -8 45
-17 18 -9 36 -17 42 -17 9 0 4 37 -9 55 -4 6 -12 37 -19 70 -7 33 -17 71 -21
85 -8 24 -8 24 -9 -7 -2 -66 -12 -66 -47 2 -18 37 -35 74 -37 83 -3 9 -5 -2
-6 -26z"/>
<path d="M4390 1201 c0 -5 -14 -39 -31 -76 -35 -74 -48 -72 -50 5 l-1 45 -9
-50 c-8 -53 -23 -106 -45 -167 -16 -45 -7 -49 42 -19 22 13 35 16 42 9 7 -7
18 7 36 46 28 61 34 91 13 61 -23 -30 -28 -1 -8 41 25 51 37 114 22 114 -6 0
-11 -4 -11 -9z"/>
<path d="M3721 1124 c0 -11 3 -14 6 -6 3 7 2 16 -1 19 -3 4 -6 -2 -5 -13z"/>
<path d="M3694 1083 c-3 -10 -10 -30 -16 -45 -18 -49 -3 -50 32 -1 46 63 46
63 16 63 -17 0 -29 -7 -32 -17z"/>
<path d="M4090 1095 c0 -5 24 -35 46 -59 6 -6 15 -20 22 -31 11 -20 11 -20 12
1 0 12 -7 38 -15 58 -12 28 -21 36 -40 36 -14 0 -25 -2 -25 -5z"/>
<path d="M3885 1074 c-11 -3 -31 -21 -44 -40 -14 -19 -45 -54 -71 -77 -59 -54
-64 -62 -45 -81 11 -10 26 -13 45 -9 38 7 63 -12 56 -42 -5 -19 0 -24 33 -33
48 -15 74 -15 122 0 30 9 38 15 34 29 -9 26 23 52 56 45 25 -5 59 13 59 31 0
2 -24 28 -52 56 -29 29 -64 66 -78 84 -25 33 -69 46 -115 37z m99 -114 c18
-18 -8 -30 -62 -30 -31 0 -62 4 -69 8 -15 10 -4 28 22 35 25 6 97 -2 109 -13z"/>
<path d="M3390 954 c0 -14 4 -23 9 -20 5 3 7 15 4 26 -7 28 -13 25 -13 -6z"/>
<path d="M4440 956 c0 -31 6 -34 13 -6 3 11 1 23 -4 26 -5 3 -9 -6 -9 -20z"/>
<path d="M3740 652 c0 -23 -5 -42 -12 -45 -9 -3 -1 -17 21 -38 l33 -34 -6 48
c-4 37 -3 47 9 47 25 0 18 13 -28 49 -16 12 -17 10 -17 -27z"/>
<path d="M4067 664 c-24 -20 -26 -25 -12 -30 13 -5 15 -15 9 -50 -3 -24 -2
-44 2 -43 17 1 58 61 46 68 -6 3 -12 23 -14 43 l-3 36 -28 -24z"/>
<path d="M3580 500 c0 -6 20 -42 44 -79 24 -38 47 -78 51 -91 7 -21 6 -22 -14
-8 -12 8 -39 32 -61 52 -45 42 -48 40 -21 -12 55 -111 74 -140 87 -135 12 4
105 -52 112 -69 2 -5 10 -8 18 -8 13 0 9 27 -5 40 -4 3 -19 24 -34 47 -45 71
-33 82 38 33 24 -16 48 -30 54 -30 6 0 11 -5 11 -12 0 -6 2 -9 5 -7 2 3 -9 42
-25 87 -16 45 -27 89 -24 97 4 8 1 15 -5 15 -16 0 -26 -4 -25 -10 11 -39 14
-70 6 -70 -12 0 -112 77 -169 130 -24 23 -43 36 -43 30z"/>
<path d="M4240 492 c-20 -24 -129 -115 -163 -137 -35 -23 -42 -15 -26 29 14
39 10 50 -15 40 -10 -4 -14 -13 -11 -24 3 -10 -6 -48 -20 -85 -26 -71 -26 -86
3 -69 71 44 112 65 112 57 0 -4 -20 -39 -45 -78 -24 -38 -39 -72 -34 -73 5 -2
34 15 64 37 30 23 61 41 68 41 8 0 19 6 25 13 18 22 93 167 87 167 -3 0 -27
-19 -51 -42 -88 -83 -94 -75 -26 32 51 79 66 110 54 110 -4 0 -14 -8 -22 -18z"/>
</g>
</svg>
